# xmcd
#
# Track frame offsets:
#	150
#	16667
#	33623
#	47139
#	60892
#	77553
#	91821
#	106604
#	120040
#	132198
#	149735
#
# Disc length: 2217 seconds
#
# Revision: 0
# Processed by: cddbd v1.5.2PL0 Copyright (c) Steve Scherf et al.
# Submitted via: audiograbber 1.83.01
#
DISCID=7b08a70b
DTITLE=The Muirs - The Muirs
DYEAR=2014
DGENRE=Country
TTITLE0=Long Black Veil
TTITLE1=Unseen Wings
TTITLE2=Burri
TTITLE3=Streets Of Baltimore
TTITLE4=No Reply
TTITLE5=Adam and Eve
TTITLE6=Just Do It
TTITLE7=God May Forgive You
TTITLE8=Crazy In Love
TTITLE9=Will The Circle Be Unbroken
TTITLE10=additional
EXTD=
EXTT0=
EXTT1=
EXTT2=
EXTT3=
EXTT4=
EXTT5=
EXTT6=
EXTT7=
EXTT8=
EXTT9=
EXTT10=
PLAYORDER=
